<svg xmlns="http://www.w3.org/2000/svg" xmlns:xlink="http://www.w3.org/1999/xlink" viewBox="0,0,256,256" width="48px" height="48px" fill-rule="nonzero"><defs><linearGradient x1="4.929" y1="4.929" x2="19.071" y2="19.071" gradientUnits="userSpaceOnUse" id="color-1"><stop offset="0" stop-color="#ca5bff" stop-opacity="0.01176"></stop><stop offset="1" stop-color="#ffffff" stop-opacity="0.3"></stop></linearGradient><linearGradient x1="4.929" y1="4.929" x2="19.071" y2="19.071" gradientUnits="userSpaceOnUse" id="color-2"><stop offset="0" stop-color="#ca5bff" stop-opacity="0.01176"></stop><stop offset="0.493" stop-color="#ffffff" stop-opacity="0"></stop><stop offset="0.997" stop-color="#ffffff" stop-opacity="0.3"></stop></linearGradient><linearGradient x1="9.879" y1="6.879" x2="14.121" y2="11.121" gradientUnits="userSpaceOnUse" id="color-3"><stop offset="0" stop-color="#ffffff" stop-opacity="0.7"></stop><stop offset="0.519" stop-color="#ffffff" stop-opacity="0.45"></stop><stop offset="1" stop-color="#ffffff" stop-opacity="0.55"></stop></linearGradient><linearGradient x1="8.896" y1="12.579" x2="15.104" y2="18.788" gradientUnits="userSpaceOnUse" id="color-4"><stop offset="0" stop-color="#ffffff" stop-opacity="0.7"></stop><stop offset="0.519" stop-color="#ffffff" stop-opacity="0.45"></stop><stop offset="1" stop-color="#ffffff" stop-opacity="0.55"></stop></linearGradient></defs><g fill="none" fill-rule="nonzero" stroke="none" stroke-width="1" stroke-linecap="butt" stroke-linejoin="miter" stroke-miterlimit="10" stroke-dasharray="" stroke-dashoffset="0" font-family="none" font-weight="none" font-size="none" text-anchor="none" style="mix-blend-mode: normal"><g transform="scale(10.66667,10.66667)"><circle cx="12" cy="12" r="10" fill="url(#color-1)"></circle><path d="M12,2.5c5.238,0 9.5,4.262 9.5,9.5c0,5.238 -4.262,9.5 -9.5,9.5c-5.238,0 -9.5,-4.262 -9.5,-9.5c0,-5.238 4.262,-9.5 9.5,-9.5M12,2c-5.523,0 -10,4.477 -10,10c0,5.523 4.477,10 10,10c5.523,0 10,-4.477 10,-10c0,-5.523 -4.477,-10 -10,-10z" fill="url(#color-2)"></path><circle cx="12" cy="9" r="3" fill="url(#color-3)"></circle><path d="M17.883,15.784c-0.309,-1.029 -1.253,-1.784 -2.383,-1.784h-7c-1.13,0 -2.074,0.755 -2.383,1.784c1.245,1.933 3.412,3.216 5.883,3.216c2.471,0 4.638,-1.283 5.883,-3.216z" fill="url(#color-4)"></path></g></g></svg>
